<svg xmlns="http://www.w3.org/2000/svg" width="890" height="867" viewBox="0 0 890 867">
  <g id="Group_1" data-name="Group 1" transform="translate(-143 -181)">
    <g id="Ellipse_1" data-name="Ellipse 1" transform="translate(266 294)" fill="none" stroke="#fff" stroke-width="2">
      <ellipse cx="321" cy="320.5" rx="321" ry="320.5" stroke="none"/>
      <ellipse cx="321" cy="320.5" rx="320" ry="319.5" fill="none"/>
    </g>
    <g id="Ellipse_2" data-name="Ellipse 2" transform="translate(209 237)" fill="none" stroke="#fff" stroke-width="2">
      <ellipse cx="378" cy="377.5" rx="378" ry="377.5" stroke="none"/>
      <ellipse cx="378" cy="377.5" rx="377" ry="376.5" fill="none"/>
    </g>
    <g id="Ellipse_3" data-name="Ellipse 3" transform="translate(153 181)" fill="none" stroke="#fff" stroke-width="2">
      <circle cx="433.5" cy="433.5" r="433.5" stroke="none"/>
      <circle cx="433.5" cy="433.5" r="432.5" fill="none"/>
    </g>
    <circle id="Ellipse_4" data-name="Ellipse 4" cx="20.5" cy="20.5" r="20.5" transform="translate(567 273)" fill="#fff"/>
    <circle id="Ellipse_5" data-name="Ellipse 5" cx="20.5" cy="20.5" r="20.5" transform="translate(567 915)" fill="#fff"/>
    <ellipse id="Ellipse_6" data-name="Ellipse 6" cx="20.5" cy="20" rx="20.5" ry="20" transform="translate(825 408)" fill="#fff"/>
    <circle id="Ellipse_7" data-name="Ellipse 7" cx="20" cy="20" r="20" transform="translate(200 509)" fill="#fff"/>
    <ellipse id="Ellipse_8" data-name="Ellipse 8" cx="20.5" cy="20" rx="20.5" ry="20" transform="translate(867 903)" fill="#fff"/>
    <circle id="Ellipse_9" data-name="Ellipse 9" cx="20" cy="20" r="20" transform="translate(757 204)" fill="#fff"/>
    <ellipse id="Ellipse_10" data-name="Ellipse 10" cx="20" cy="20.5" rx="20" ry="20.5" transform="translate(328 301)" fill="#fff"/>
    <circle id="Ellipse_11" data-name="Ellipse 11" cx="20" cy="20" r="20" transform="translate(195 818)" fill="#fff"/>
    <circle id="Ellipse_12" data-name="Ellipse 12" cx="12.5" cy="12.5" r="12.5" transform="translate(1008 623)" fill="#fff"/>
    <circle id="Ellipse_13" data-name="Ellipse 13" cx="12.5" cy="12.5" r="12.5" transform="translate(791 294)" fill="#fff"/>
    <circle id="Ellipse_14" data-name="Ellipse 14" cx="12.5" cy="12.5" r="12.5" transform="translate(291 747)" fill="#fff"/>
    <circle id="Ellipse_15" data-name="Ellipse 15" cx="12.5" cy="12.5" r="12.5" transform="translate(356 224)" fill="#fff"/>
    <ellipse id="Ellipse_16" data-name="Ellipse 16" cx="12.5" cy="13" rx="12.5" ry="13" transform="translate(143 635)" fill="#fff"/>
  </g>
</svg>
