<svg id="pancakeswap-cake-seeklogo.com" xmlns="http://www.w3.org/2000/svg" width="31.7" height="32" viewBox="0 0 31.7 32">
  <path id="Path_52" data-name="Path 52" d="M5.7,5A4.19,4.19,0,1,1,14,4.2V9.4c.6,0,1.2-.1,1.8-.1a9.7,9.7,0,0,1,1.7.1V4.2A4.225,4.225,0,0,1,21.7,0a4.325,4.325,0,0,1,4.2,5l-1.1,6.1c3.9,1.7,6.9,4.7,6.9,8.4v2.3c0,3.1-2,5.7-4.9,7.4a20.871,20.871,0,0,1-11,2.8,20.871,20.871,0,0,1-11-2.8C2,27.5,0,24.9,0,21.8V19.5c0-3.7,2.9-6.7,6.8-8.4Zm17.6,6.9,1.3-7.2a2.956,2.956,0,0,0-2.9-3.5,2.9,2.9,0,0,0-2.9,2.9v6.6a5.7,5.7,0,0,0-1.3-.1c-.6,0-1.1-.1-1.7-.1a10.869,10.869,0,0,0-1.8.1c-.4,0-.9.1-1.3.1V4.2A2.883,2.883,0,1,0,7,4.8L8.3,12c-4.2,1.6-7,4.4-7,7.6v2.3c0,4.9,6.5,8.9,14.5,8.9s14.5-4,14.5-8.9V19.6C30.4,16.3,27.6,13.5,23.3,11.9Z" fill="#633001" fill-rule="evenodd"/>
  <path id="Path_53" data-name="Path 53" d="M30.4,21.8c0,4.9-6.5,8.9-14.5,8.9s-14.5-4-14.5-8.9V19.5H30.5v2.3Z" fill="#fedc90"/>
  <path id="Path_54" data-name="Path 54" d="M7,4.8a2.883,2.883,0,1,1,5.7-.6v6.6a30.284,30.284,0,0,1,3.1-.2c1,0,2,.1,3,.2V4.2a2.9,2.9,0,0,1,2.9-2.9,3.009,3.009,0,0,1,2.9,3.5L23.3,12c4.2,1.6,7.1,4.4,7.1,7.6,0,4.9-6.5,8.9-14.5,8.9s-14.5-4-14.5-8.9c0-3.2,2.8-6,7-7.6Z" fill="#d1884f" fill-rule="evenodd"/>
  <path id="Path_55" data-name="Path 55" d="M11.8,18.9c0,1.3-.7,2.4-1.6,2.4s-1.6-1.1-1.6-2.4.7-2.4,1.6-2.4S11.8,17.6,11.8,18.9Z" fill="#633001"/>
  <path id="Path_56" data-name="Path 56" d="M22.9,18.9c0,1.3-.7,2.4-1.6,2.4s-1.6-1.1-1.6-2.4.7-2.4,1.6-2.4S22.9,17.6,22.9,18.9Z" fill="#633001"/>
</svg>
