<svg xmlns="http://www.w3.org/2000/svg" width="60" height="60" viewBox="0 0 60 60"><g transform="translate(-4869 -10036)"><rect width="60" height="60" transform="translate(4869 10036)" fill="#fff" opacity="0"/><path d="M44.883,3.026a5.174,5.174,0,0,0-2.44.37C41.4,3.8,25.121,10.654,9.942,17.044L4.927,19.154C2.984,19.942,2,21.223,2,22.948c0,1.208.511,2.846,2.95,3.811l8.466,3.392c.732,2.2,2.432,7.3,2.86,8.651.254.8.9,2.828,2.517,3.3a3.2,3.2,0,0,0,1.033.171,3.479,3.479,0,0,0,2.12-.753l5.381-4.551,6.535,6.044a5.081,5.081,0,0,0,3.374,1.552,4.563,4.563,0,0,0,4.28-3.658c.192-.986,6.495-32.628,6.495-32.623.566-2.538-.451-3.854-1.105-4.416A3.672,3.672,0,0,0,44.883,3.026ZM43.354,8.014c-.871,4.365-5.616,28.188-6.337,31.622L27.464,30.8l-6.481,5.489,1.8-7.023S35.162,16.731,35.908,16c.6-.584.726-.789.726-.992a.419.419,0,0,0-.46-.465,2.132,2.132,0,0,0-.889.406C32.645,16.6,21.4,23,15.869,26.15L7.84,22.943l3.9-1.637C21.665,17.126,39.345,9.681,43.354,8.014Z" transform="translate(4873.909 10042.217)" fill="#fff"/></g></svg>