<svg xmlns="http://www.w3.org/2000/svg" width="60" height="60" viewBox="0 0 60 60"><g transform="translate(-4938 -10036)"><rect width="60" height="60" transform="translate(4938 10036)" fill="#fff" opacity="0"/><path d="M49.8,9.034a19.578,19.578,0,0,1-5.633,1.544,9.824,9.824,0,0,0,4.311-5.426,19.665,19.665,0,0,1-6.229,2.381,9.81,9.81,0,0,0-16.965,6.709,9.916,9.916,0,0,0,.254,2.234A27.842,27.842,0,0,1,5.327,6.229,9.825,9.825,0,0,0,8.362,19.323,9.787,9.787,0,0,1,3.92,18.1v.123a9.809,9.809,0,0,0,7.867,9.616,9.811,9.811,0,0,1-2.585.344A9.986,9.986,0,0,1,7.358,28a9.819,9.819,0,0,0,9.162,6.812,19.671,19.671,0,0,1-12.181,4.2A19.706,19.706,0,0,1,2,38.878a27.765,27.765,0,0,0,15.034,4.405c18.04,0,27.9-14.944,27.9-27.9q0-.637-.028-1.269A19.957,19.957,0,0,0,49.8,9.034Z" transform="translate(4942.098 10042.141)" fill="#fff"/></g></svg>